<?xml version="1.0" encoding="UTF-8"?>
<svg version="1.1" xmlns="http://www.w3.org/2000/svg" width="143" height="121">
<path d="M0 0 C47.19 0 94.38 0 143 0 C143 39.93 143 79.86 143 121 C95.81 121 48.62 121 0 121 C0 81.07 0 41.14 0 0 Z " fill="#FEFDFC" transform="translate(0,0)"/>
<path d="M0 0 C9.24 0 18.48 0 28 0 C27.39731488 4.21879585 26.85366373 7.96295525 25.80078125 12.01171875 C25.56431885 12.92356934 25.32785645 13.83541992 25.08422852 14.77490234 C24.7022229 16.21663818 24.7022229 16.21663818 24.3125 17.6875 C24.0455835 18.70279785 23.77866699 19.7180957 23.50366211 20.76416016 C21.58731321 27.9762017 19.51244148 35.12850262 17.33251953 42.26464844 C15.1899758 49.29622755 13.1721298 56.35982099 11.1875 63.4375 C10.88529541 64.5104834 10.58309082 65.5834668 10.27172852 66.68896484 C9.98998779 67.69781738 9.70824707 68.70666992 9.41796875 69.74609375 C9.16813232 70.63997803 8.9182959 71.5338623 8.66088867 72.45483398 C8.01364777 74.9474407 7.50505175 77.47474125 7 80 C-2.57 80 -12.14 80 -22 80 C-20.12623888 71.25578144 -18.21484096 62.74813111 -15.75 54.1875 C-15.13259953 52.01568553 -14.51541858 49.84380865 -13.8984375 47.671875 C-13.58487305 46.57294922 -13.27130859 45.47402344 -12.94824219 44.34179688 C-12.0079511 41.02802128 -11.08314127 37.71034147 -10.1640625 34.390625 C-6.96932699 22.85807122 -3.65136742 11.39669224 0 0 Z " fill="#F89D02" transform="translate(100,19)"/>
<path d="M0 0 C9.57 0 19.14 0 29 0 C26.80460971 9.79481824 24.36547161 19.39175942 21.42553711 28.98681641 C18.07958479 39.93323211 15.05748982 50.97029498 12 62 C11.48196544 63.86333536 10.96374594 65.72661933 10.4453125 67.58984375 C9.29448934 71.7259073 8.14725243 75.86293822 7 80 C-2.57 80 -12.14 80 -22 80 C-20.21835071 72.27951973 -18.42646927 64.78742863 -16.21875 57.2109375 C-14.68522956 51.94464181 -13.22281975 46.65852028 -11.75 41.375 C-7.89364156 27.56585757 -3.94796847 13.78325834 0 0 Z " fill="#020202" transform="translate(36,19)"/>
<path d="M0 0 C9.24 0 18.48 0 28 0 C26.88489209 10.03597122 26.88489209 10.03597122 25.375 14.5 C23.32134429 20.87597079 21.4819177 27.29634031 19.6875 33.75 C19.24313599 35.34606079 19.24313599 35.34606079 18.78979492 36.97436523 C18.17459343 39.18511731 17.55977238 41.39597528 16.9453125 43.60693359 C15.98952501 47.03759851 15.02711944 50.46633989 14.0625 53.89453125 C13.74837158 55.01182617 13.43424316 56.12912109 13.1105957 57.28027344 C12.51088845 59.41263637 11.91050367 61.54480892 11.30932617 63.67675781 C10.89904175 65.13807129 10.89904175 65.13807129 10.48046875 66.62890625 C10.24223389 67.47525635 10.00399902 68.32160645 9.75854492 69.19360352 C8.78850773 72.78246012 7.90166069 76.39335725 7 80 C-2.57 80 -12.14 80 -22 80 C-19.76243094 68.8121547 -19.76243094 68.8121547 -18.3125 63.9375 C-17.96445312 62.74640625 -17.61640625 61.5553125 -17.2578125 60.328125 C-17.0609082 59.65458984 -16.86400391 58.98105469 -16.66113281 58.28710938 C-15.30512388 53.59615971 -14.00092727 48.89051038 -12.6875 44.1875 C-12.39117676 43.12869629 -12.09485352 42.06989258 -11.78955078 40.97900391 C-10.20969093 35.33351432 -8.63406306 29.68686726 -7.0625 24.0390625 C-6.74837158 22.91218018 -6.43424316 21.78529785 -6.1105957 20.62426758 C-5.50890676 18.46560306 -4.90842434 16.30660177 -4.30932617 14.1472168 C-4.03580322 13.16664307 -3.76228027 12.18606934 -3.48046875 11.17578125 C-3.24223389 10.31895752 -3.00399902 9.46213379 -2.75854492 8.5793457 C-1.91101321 5.69741054 -0.94994001 2.84982004 0 0 Z " fill="#FF0202" transform="translate(68,19)"/>
</svg>
